<svg width="21" height="32" viewBox="0 0 21 32" fill="none" xmlns="http://www.w3.org/2000/svg">
<path d="M10.3125 21.0128L0 29.2638V31.0625C0 31.5807 0.419312 32 0.9375 32H19.675C20.1932 32 20.6125 31.5807 20.6125 31.0625V29.2638L10.3125 21.0128Z" fill="#B10EB5"/>
<path d="M19.6875 9.5H17.8125C17.2943 9.5 16.875 9.91931 16.875 10.4375C16.875 11.9884 15.6134 13.25 14.0625 13.25H6.5625C5.01163 13.25 3.75 11.9884 3.75 10.4375C3.75 9.91931 3.33069 9.5 2.8125 9.5H0.9375C0.419312 9.5 0 9.91931 0 10.4375V26.8615L9.7265 19.0801C10.0689 18.8073 10.556 18.8073 10.8984 19.0801L20.6125 26.8615V10.4375C20.6125 9.91931 20.2057 9.5 19.6875 9.5Z" fill="#B10EB5"/>
<path d="M3.68555 0H2.74805C2.22986 0 1.81055 0.419312 1.81055 0.9375V7.625H4.62305V0.9375C4.62305 0.419312 4.20373 0 3.68555 0Z" fill="#B10EB5"/>
<path d="M17.7483 3.875H16.8108C16.2926 3.875 15.8733 4.29431 15.8733 4.8125V8.3565C16.372 7.90675 17.0254 7.625 17.7483 7.625H18.6858V4.8125C18.6858 4.29431 18.2665 3.875 17.7483 3.875Z" fill="#B10EB5"/>
<path d="M13.0605 3.875H12.123C11.6049 3.875 11.1855 4.29431 11.1855 4.8125V11.375H13.998V4.8125C13.998 4.29431 13.5787 3.875 13.0605 3.875Z" fill="#B10EB5"/>
<path d="M8.37305 3.875H7.43555C6.91736 3.875 6.49805 4.29431 6.49805 4.8125V11.375H9.31055V4.8125C9.31055 4.29431 8.89123 3.875 8.37305 3.875Z" fill="#B10EB5"/>
</svg>
