<svg width="32" height="32" viewBox="0 0 32 32" fill="none" xmlns="http://www.w3.org/2000/svg">
<path d="M0.629089 11.3573C0.52653 11.3278 0.416175 11.36 0.345501 11.4399C0.274826 11.5199 0.256436 11.6333 0.298242 11.7315C2.25078 16.0651 5.69485 20.7186 10.0338 23.322C7.27261 23.2825 4.5428 23.9115 2.07722 25.1552C1.96594 25.231 1.89934 25.3569 1.89934 25.4915C1.89934 25.6261 1.96594 25.752 2.07722 25.8278C4.89214 27.2108 8.28739 27.9973 11.444 27.5091C10.7477 28.6181 10.2691 29.8495 10.0338 31.1376C10.02 31.2398 10.0619 31.3415 10.1437 31.4043C10.2255 31.467 10.3347 31.4812 10.4298 31.4413C12.4528 30.8068 14.5138 29.4834 15.4521 27.5091V31.4576C15.4521 31.7572 15.695 32 15.9945 32C16.2941 32 16.5369 31.7572 16.5369 31.4576V27.5091C17.4752 29.478 19.5362 30.8068 21.5593 31.4413C21.6544 31.4812 21.7635 31.467 21.8453 31.4043C21.9271 31.3415 21.969 31.2398 21.9552 31.1376C21.7216 29.8499 21.2449 28.6185 20.5504 27.5091C23.7016 28.0027 27.0969 27.2108 29.9172 25.8278C30.0285 25.752 30.0951 25.6261 30.0951 25.4915C30.0951 25.3569 30.0285 25.231 29.9172 25.1552C27.4533 23.9124 24.7254 23.2834 21.966 23.322C26.2616 20.7349 29.7382 16.0868 31.7288 11.7315C31.7706 11.6333 31.7522 11.5199 31.6815 11.4399C31.6108 11.36 31.5005 11.3278 31.3979 11.3573C26.6847 12.8976 21.5755 15.9458 18.5382 20.0949H18.5111C20.2196 13.6949 18.8854 6.07999 16.2711 0.168125C16.2291 0.0706656 16.1332 0.00753219 16.0271 0.00753219C15.9209 0.00753219 15.825 0.0706656 15.783 0.168125C13.1633 6.13423 11.8399 13.7274 13.543 20.0949H13.5159C10.4786 15.9837 5.3857 12.9085 0.629089 11.3573Z" fill="#38842C"/>
</svg>
