<svg width="32" height="32" viewBox="0 0 32 32" fill="none" xmlns="http://www.w3.org/2000/svg">
<path d="M9.6001 28.8V29.6C9.6001 30.92 10.6801 32 12.0001 32H20.0001C21.3201 32 22.4001 30.92 22.4001 29.6V28.8H9.6001Z" fill="#0094FF"/>
<path d="M17.6001 3.2V0H14.4001V3.2C14.4001 9.00375 11.6129 8.97313 10.2864 12H21.7137C20.3872 8.97313 17.6001 9.00375 17.6001 3.2Z" fill="#0094FF"/>
<path d="M22.3178 14.4H9.68235C9.6291 14.8792 9.6001 15.4093 9.6001 16V26.4H22.4001V16C22.4001 15.4093 22.3712 14.8792 22.3178 14.4ZM16.0001 23.2C14.6746 23.2 13.6001 21.9464 13.6001 20.4C13.6001 18.8536 14.6746 17.6 16.0001 17.6C17.3256 17.6 18.4001 18.8536 18.4001 20.4C18.4001 21.9464 17.3256 23.2 16.0001 23.2Z" fill="#0094FF"/>
</svg>
