<svg width="32" height="32" viewBox="0 0 32 32" fill="none" xmlns="http://www.w3.org/2000/svg">
<g clip-path="url(#clip0)">
<path d="M2.2231 18.7143C1.94844 18.8445 1.75362 19.1008 1.70137 19.4011C1.64912 19.7014 1.74629 20.009 1.96236 20.2241L8.28389 26.5459C8.46626 26.4878 8.64766 26.4267 8.83882 26.3911C9.05318 25.2378 9.69868 24.2414 10.5922 23.5503L7.38765 20.3459C7.02144 19.9797 7.02144 19.3864 7.38765 19.0202C7.75386 18.654 8.34712 18.654 8.71333 19.0202L9.37617 19.6831L10.7019 18.3574L10.039 17.6946C9.6728 17.3283 9.6728 16.7351 10.039 16.3689C10.4052 16.0027 10.9987 16.0027 11.3647 16.3689L12.0275 17.0315L13.4875 15.5718C12.9958 14.5276 13.155 13.2524 14.0153 12.3908C14.8779 11.5302 16.153 11.3706 17.197 11.8623L18.6569 10.4021L17.9943 9.73948C17.6281 9.37326 17.6281 8.77976 17.9943 8.41355C18.3603 8.04758 18.9538 8.04758 19.32 8.41355L19.9826 9.07639L21.3085 7.75071L20.6457 7.08786C20.2795 6.7219 20.2795 6.12839 20.6457 5.76218C21.0119 5.39597 21.6052 5.39597 21.9714 5.76218L24.6228 8.41355C24.989 8.77976 24.989 9.37326 24.6228 9.73948C24.2565 10.1054 23.6633 10.1054 23.2971 9.73948L22.6342 9.07663L21.3085 10.4023L21.9714 11.0652C22.3376 11.4311 22.3376 12.0246 21.9714 12.3908C21.6052 12.7571 21.0119 12.7571 20.6457 12.3908L19.9829 11.728L18.5229 13.188C19.0146 14.2322 18.8554 15.5071 17.9951 16.3689C17.9943 16.3689 17.9943 16.3689 17.9943 16.3696C17.2246 17.1379 16.0253 17.4687 14.8132 16.8974L13.3535 18.3574L14.0163 19.0202C14.3823 19.3864 14.3823 19.9797 14.0163 20.3459C13.6501 20.7121 13.0566 20.7121 12.6904 20.3459L12.0278 19.6831L10.7021 21.0088L12.3906 22.6975C12.924 22.5735 13.3845 22.5288 13.9311 22.5881C14.9821 21.4006 16.5073 20.6875 18.1352 20.6875C19.8188 20.6875 21.3273 21.4343 22.3588 22.6098L30.048 14.9214C30.2634 14.7063 30.3603 14.3996 30.309 14.1001C30.2578 13.7998 30.0637 13.5434 29.789 13.4126C29.5739 13.3091 29.4018 13.1928 29.2636 13.0537C28.5307 12.3208 28.5302 11.1355 29.2636 10.4023C29.4028 10.2632 29.5739 10.1469 29.7873 10.0451C30.062 9.91526 30.257 9.65891 30.3093 9.35862C30.3613 9.05832 30.2644 8.75071 30.0483 8.53562L21.8496 0.274388C21.6335 0.0583231 21.3286 -0.0378683 21.0263 0.0134013C20.726 0.0656473 20.4697 0.260716 20.3398 0.535374C20.2382 0.748753 20.122 0.919895 19.9826 1.05906C19.2741 1.7678 18.041 1.7695 17.3305 1.05735C17.1921 0.920872 17.0759 0.748753 16.9724 0.533665C16.8415 0.258763 16.5852 0.0649149 16.2849 0.0136454C15.9909 -0.0376241 15.6787 0.0583231 15.4636 0.274388L1.96236 13.8384C1.74702 14.0534 1.6501 14.3601 1.70137 14.6596C1.75264 14.9599 1.94673 15.2163 2.22139 15.3471C2.43648 15.4507 2.6086 15.5669 2.74678 15.706C3.47969 16.4389 3.47993 17.6242 2.74678 18.3574C2.60762 18.4966 2.43648 18.6128 2.2231 18.7143Z" fill="#8D8D8D"/>
<path d="M16.6683 15.0432C17.0338 14.677 17.0338 14.0818 16.6674 13.7166C16.3038 13.353 15.7094 13.3496 15.3417 13.7175C14.9764 14.0818 14.9764 14.6777 15.3427 15.0432C15.7079 15.4085 16.3031 15.4065 16.6683 15.0432Z" fill="#8D8D8D"/>
<path d="M21.8757 26.406C21.8767 26.3743 21.8853 26.3445 21.8853 26.3125C21.8853 24.2414 20.2063 22.5625 18.1353 22.5625C16.6196 22.5625 15.3213 23.4663 14.7302 24.7602C14.344 24.5608 13.9124 24.4375 13.4478 24.4375C11.8943 24.4375 10.6353 25.6968 10.6353 27.25C10.6353 27.5806 10.7026 27.8928 10.8074 28.1875H9.69775C8.14429 28.1875 6.88525 29.5093 6.88525 31.0625C6.88525 31.5803 7.30493 32 7.82275 32H24.6978C25.2156 32 25.6353 31.5803 25.6353 31.0625C25.6353 28.7915 24.02 26.8367 21.8757 26.406ZM15.3228 29.125C14.8049 29.125 14.3853 28.7053 14.3853 28.1875C14.3853 27.6697 14.8049 27.25 15.3228 27.25C15.8403 27.25 16.2603 27.6697 16.2603 28.1875C16.2603 28.7053 15.8403 29.125 15.3228 29.125ZM19.0728 27.25C18.5549 27.25 18.1353 26.8303 18.1353 26.3125C18.1353 25.7947 18.5549 25.375 19.0728 25.375C19.5906 25.375 20.0103 25.7947 20.0103 26.3125C20.0103 26.8303 19.5906 27.25 19.0728 27.25Z" fill="#8D8D8D"/>
</g>
<defs>
<clipPath id="clip0">
<rect width="32" height="32" fill="white"/>
</clipPath>
</defs>
</svg>
