<svg width="46" height="46" viewBox="0 0 46 46" fill="none" xmlns="http://www.w3.org/2000/svg">
<g clip-path="url(#clip0)">
<path d="M16.106 16.2558L7.72021 24.6416L13.5621 30.4835L21.9479 22.0977L16.106 16.2558Z" fill="#B36B00"/>
<path d="M29.2341 7.92802C26.5965 8.24104 23.9811 10.1732 22.5217 11.4364C22.2557 11.6671 22.0281 11.8752 21.8456 12.047L21.6742 12.2088L21.1586 12.7244L19.8012 14.0817L17.5972 15.0961L17.6909 15.1898L23.1222 20.6211L24.3243 18.201L25.4797 17.0456L25.9799 16.5454L26.1566 16.3581C26.3285 16.1756 26.5366 15.948 26.7673 15.682C28.0305 14.2226 29.9626 11.6072 30.2757 8.96963L30.4157 7.78849L29.2341 7.92802Z" fill="#B36B00"/>
<path d="M7.10483 26.6774L5.57739 28.2049L9.99893 32.6264L11.5264 31.099L7.10483 26.6774Z" fill="#B36B00"/>
<path d="M23.157 23.3069L14.7712 31.6927L20.6131 37.5346L28.9989 29.1488L23.157 23.3069Z" fill="#B36B00"/>
<path d="M36.2851 14.979C33.6475 15.2921 31.0321 17.2242 29.5727 18.4874C29.3067 18.7181 29.0791 18.9262 28.8967 19.0981L28.7093 19.2748L28.2091 19.775L26.8514 21.1328L24.6482 22.1471L30.1732 27.6721L31.3762 25.2502L32.5303 24.0962L33.0459 23.5805L33.8183 22.733C35.0815 21.2736 37.0136 18.6582 37.3267 16.0206L37.4663 14.8391L36.2851 14.979Z" fill="#B36B00"/>
<path d="M14.1559 33.7284L12.6284 35.2559L17.05 39.6774L18.5774 38.15L14.1559 33.7284Z" fill="#B36B00"/>
</g>
<defs>
<clipPath id="clip0">
<rect width="32" height="32" fill="white" transform="translate(0 22.6274) rotate(-45)"/>
</clipPath>
</defs>
</svg>
